<svg width="200" height="200" viewBox="0 0 200 200" fill="none" xmlns="http://www.w3.org/2000/svg">
<mask id="path-1-inside-1_44_6" fill="white">
<path d="M75 125H125V75H75V125ZM102.5 101L112.5 87.5L97 97.5L87.5 112.5L102.5 101Z"/>
</mask>
<path d="M75 125H125V75H75V125ZM102.5 101L112.5 87.5L97 97.5L87.5 112.5L102.5 101Z" fill="#503CC3"/>
<path d="M75 125H45V155H75V125ZM125 125V155H155V125H125ZM125 75H155V45H125V75ZM75 75V45H45V75H75ZM102.5 101L120.753 124.808L124.098 122.244L126.607 118.857L102.5 101ZM112.5 87.5L136.607 105.357L96.2362 62.2911L112.5 87.5ZM97 97.5L80.7362 72.2911L75.1881 75.8705L71.6554 81.4484L97 97.5ZM87.5 112.5L62.1554 96.4484L105.753 136.308L87.5 112.5ZM75 125V155H125V125V95H75V125ZM125 125H155V75H125H95V125H125ZM125 75V45H75V75V105H125V75ZM75 75H45V125H75H105V75H75ZM102.5 101L126.607 118.857L136.607 105.357L112.5 87.5L88.3933 69.6432L78.3933 83.1432L102.5 101ZM112.5 87.5L96.2362 62.2911L80.7362 72.2911L97 97.5L113.264 122.709L128.764 112.709L112.5 87.5ZM97 97.5L71.6554 81.4484L62.1554 96.4484L87.5 112.5L112.845 128.552L122.345 113.552L97 97.5ZM87.5 112.5L105.753 136.308L120.753 124.808L102.5 101L84.2471 77.1918L69.2471 88.6918L87.5 112.5Z" fill="#503CC3" mask="url(#path-1-inside-1_44_6)"/>
<path d="M12.5 112.5V125H40.625V159.375H75V187.5H87.5V159.375H112.5V187.5H125V159.375H159.375V125H187.5V112.5H159.375V87.5H187.5V75H159.375V40.625H125V12.5H112.5V40.625H87.5V12.5L75 12.5V40.625H40.625V75H12.5L12.5 87.5H40.625V112.5H12.5ZM53.125 53.125H146.875V146.875H53.125V53.125Z" fill="#503CC3" stroke="#503CC3" stroke-width="5.12"/>
</svg>
