<svg width="200" height="200" viewBox="0 0 200 200" fill="none" xmlns="http://www.w3.org/2000/svg">
<g clip-path="url(#clip0_44_13)">
<path d="M190 77.9167L170.833 62.0834V31.25C170.82 30.4511 170.577 29.6727 170.134 29.0079C169.691 28.343 169.066 27.8196 168.333 27.5L127.083 8.75004H125.417L122.917 9.58337L100 24.5834L77.0834 9.16671L74.5834 8.33337H72.9167L31.6667 27.5C30.9343 27.8196 30.3092 28.343 29.8659 29.0079C29.4227 29.6727 29.1799 30.4511 29.1667 31.25V62.0834L10 77.9167C9.42182 78.2431 8.95427 78.7348 8.65733 79.3287C8.36039 79.9226 8.24758 80.5916 8.33336 81.25V118.75C8.24758 119.408 8.36039 120.078 8.65733 120.671C8.95427 121.265 9.42182 121.757 10 122.083L29.1667 137.917V168.75C29.1799 169.549 29.4227 170.327 29.8659 170.992C30.3092 171.657 30.9343 172.181 31.6667 172.5L72.9167 191.25H74.5834L77.0834 190.417L100 175.417L122.917 190.833L125.417 191.667H127.083L168.333 172.917C169.066 172.597 169.691 172.074 170.134 171.409C170.577 170.744 170.82 169.966 170.833 169.167V137.917L190 122.083C190.511 121.788 190.935 121.363 191.228 120.85C191.52 120.338 191.672 119.757 191.667 119.167V80.8334C191.672 80.2432 191.52 79.6622 191.228 79.1497C190.935 78.6373 190.511 78.2118 190 77.9167ZM168.75 106.25H175V112.917L160.417 124.583L158.75 125.833L157.083 125C156.357 124.583 155.549 124.326 154.715 124.249C153.881 124.172 153.04 124.275 152.249 124.552C151.459 124.828 150.737 125.272 150.133 125.853C149.529 126.434 149.057 127.137 148.75 127.917C148.002 129.358 147.845 131.034 148.312 132.59C148.779 134.145 149.832 135.458 151.25 136.25L154.167 137.5V160L126.667 172.917L109.167 161.25L106.25 159.167V106.25H112.5C114.158 106.25 115.747 105.592 116.919 104.419C118.092 103.247 118.75 101.658 118.75 100C118.75 98.3424 118.092 96.7527 116.919 95.5806C115.747 94.4085 114.158 93.75 112.5 93.75H106.25V40.4167L109.167 38.3334L126.667 26.6667L154.167 39.5834V62.0834L151.25 63.3334C149.832 64.1254 148.779 65.4382 148.312 66.9936C147.845 68.5491 148.002 70.2251 148.75 71.6667C149.17 72.7648 149.912 73.7104 150.878 74.3796C151.845 75.0488 152.991 75.4103 154.167 75.4167L157.083 74.5834L158.75 73.75L160.417 75L175 87.0834V93.75H168.75C167.092 93.75 165.503 94.4085 164.331 95.5806C163.158 96.7527 162.5 98.3424 162.5 100C162.5 101.658 163.158 103.247 164.331 104.419C165.503 105.592 167.092 106.25 168.75 106.25ZM87.5 106.25H93.75V159.583L90.8334 161.667L73.3334 173.333L45.8334 160.417V137.917L48.75 136.667C50.1677 135.875 51.2214 134.562 51.6881 133.006C52.1547 131.451 51.9976 129.775 51.25 128.333C50.9426 127.554 50.4709 126.85 49.8671 126.269C49.2633 125.689 48.5414 125.245 47.7507 124.968C46.96 124.692 46.119 124.588 45.2848 124.666C44.4507 124.743 43.643 124.999 42.9167 125.417L41.25 126.25L39.5834 125L25 112.917V106.25H31.25C32.9076 106.25 34.4973 105.592 35.6694 104.419C36.8415 103.247 37.5 101.658 37.5 100C37.5 98.3424 36.8415 96.7527 35.6694 95.5806C34.4973 94.4085 32.9076 93.75 31.25 93.75H25V87.0834L39.5834 75.4167L41.25 74.1667L42.9167 75L45.8334 75.8334C47.009 75.8269 48.1552 75.4654 49.1218 74.7963C50.0883 74.1271 50.8302 73.1815 51.25 72.0834C51.9976 70.6417 52.1547 68.9657 51.6881 67.4103C51.2214 65.8549 50.1677 64.5421 48.75 63.75L45.8334 62.5V39.5834L73.3334 26.6667L90.8334 38.3334L93.75 40.4167V93.75H87.5C85.8424 93.75 84.2527 94.4085 83.0806 95.5806C81.9085 96.7527 81.25 98.3424 81.25 100C81.25 101.658 81.9085 103.247 83.0806 104.419C84.2527 105.592 85.8424 106.25 87.5 106.25Z" fill="#CCCCCC"/>
<path d="M57.9167 41.2501C56.9031 42.5629 56.3533 44.1748 56.3533 45.8334C56.3533 47.492 56.9031 49.1039 57.9167 50.4167L68.75 60.8334V72.5001L52.0834 89.1667V110.833L68.75 127.5V139.167L57.9167 149.583C56.9031 150.896 56.3533 152.508 56.3533 154.167C56.3533 155.825 56.9031 157.437 57.9167 158.75C58.53 159.321 59.2517 159.763 60.0391 160.049C60.8265 160.335 61.6634 160.46 62.5 160.417C63.3367 160.46 64.1736 160.335 64.961 160.049C65.7484 159.763 66.4701 159.321 67.0834 158.75L81.25 144.167V122.5L64.5834 105.833V94.1667L81.25 77.5001V55.8334L67.0834 41.2501C65.7705 40.2365 64.1587 39.6866 62.5 39.6866C60.8414 39.6866 59.2296 40.2365 57.9167 41.2501Z" fill="#CCCCCC"/>
<path d="M131.25 60.8334L142.083 50.4167C143.097 49.1039 143.647 47.492 143.647 45.8334C143.647 44.1748 143.097 42.5629 142.083 41.2501C140.77 40.2365 139.159 39.6866 137.5 39.6866C135.841 39.6866 134.23 40.2365 132.917 41.2501L118.75 55.8334V77.5001L135.417 94.1667V105.833L118.75 122.5V144.167L132.917 158.75C134.197 159.836 135.821 160.433 137.5 160.433C139.179 160.433 140.803 159.836 142.083 158.75C143.097 157.437 143.647 155.825 143.647 154.167C143.647 152.508 143.097 150.896 142.083 149.583L131.25 139.167V127.5L147.917 110.833V89.1667L131.25 72.5001V60.8334Z" fill="#CCCCCC"/>
</g>
<defs>
<clipPath id="clip0_44_13">
<rect width="200" height="200" fill="white"/>
</clipPath>
</defs>
</svg>
